<?xml version="1.0" standalone="no"?>
<!DOCTYPE svg PUBLIC "-//W3C//DTD SVG 20010904//EN"
 "http://www.w3.org/TR/2001/REC-SVG-20010904/DTD/svg10.dtd">
<svg version="1.0" xmlns="http://www.w3.org/2000/svg"
 width="2731.000000pt" height="749.000000pt" viewBox="0 0 2731.000000 749.000000"
 preserveAspectRatio="xMidYMid meet" style="background-color:black">

<g transform="translate(0.000000,749.000000) scale(0.100000,-0.100000)"
fill="white" stroke="none">
<path d="M21095 7020 c-620 -46 -1129 -274 -1551 -695 -363 -363 -565 -759
-640 -1260 -25 -167 -25 -515 0 -675 77 -499 301 -946 645 -1291 477 -477
1097 -686 1915 -648 386 18 673 70 1001 183 137 47 384 154 423 184 l22 17 -2
347 -3 346 -90 -54 c-694 -422 -1502 -552 -2136 -344 -496 163 -891 546 -1048
1017 -95 286 -114 639 -51 946 133 641 661 1153 1330 1286 444 88 964 28 1459
-170 146 -58 316 -138 419 -197 l72 -41 -2 346 -3 346 -135 53 c-382 152 -780
257 -1110 293 -140 15 -389 21 -515 11z"/>
<path d="M15630 4731 l0 -2241 320 0 320 0 0 970 0 970 298 0 c660 0 988 49
1255 187 414 214 650 650 623 1153 -17 327 -119 585 -314 792 -182 192 -433
322 -737 380 -105 20 -146 21 -937 25 l-828 4 0 -2240z m1540 1654 c332 -50
532 -208 597 -473 26 -104 23 -314 -6 -417 -59 -211 -194 -358 -398 -432 -148
-54 -167 -55 -645 -60 l-448 -5 0 701 0 701 403 0 c299 0 426 -4 497 -15z"/>
<path d="M11848 5388 c371 -865 804 -1874 962 -2243 l287 -670 73 0 74 0 898
2135 c493 1174 918 2183 942 2243 l45 107 -318 0 -318 0 -664 -1565 c-365
-860 -666 -1564 -669 -1565 -3 0 -306 704 -675 1565 l-669 1565 -322 0 -321 0
675 -1572z"/>
<path d="M820 3825 c-24 -41 -90 -171 -90 -179 0 -4 -16 -41 -35 -82 -19 -41
-35 -77 -35 -79 0 -3 -16 -47 -36 -97 -102 -260 -163 -762 -134 -1085 15 -155
15 -157 52 -198 43 -49 83 -68 148 -69 62 -1 115 25 150 73 18 27 19 35 9 117
-15 119 -5 551 15 661 39 216 106 429 195 628 45 100 131 267 147 286 21 24 8
29 -82 29 -45 0 -84 4 -86 9 -1 5 -47 11 -101 13 l-98 3 -19 -30z"/>
<path d="M1170 2364 c1 -181 44 -416 116 -627 127 -370 361 -714 653 -959 683
-572 1618 -678 2410 -273 108 55 358 218 706 460 105 72 424 288 710 480 755
506 920 618 909 622 -6 2 -196 16 -423 32 l-414 29 -696 -465 c-383 -256 -766
-515 -852 -574 -217 -152 -367 -218 -609 -271 -93 -20 -132 -23 -335 -22 -200
0 -243 3 -328 22 -443 99 -797 339 -1048 710 -157 234 -260 528 -276 792 l-6
97 -191 12 c-105 7 -221 15 -258 18 l-68 6 0 -89z"/>
<path d="M9847 1824 c-3 -16 -9 -49 -13 -74 -10 -74 -64 -230 -109 -320 -165
-327 -466 -559 -825 -636 -106 -23 -352 -26 -455 -5 -110 22 -242 68 -334 117
-89 47 -221 140 -221 155 0 5 19 9 43 9 23 0 52 7 65 15 48 34 46 150 -4 193
l-28 25 -311 -7 c-328 -8 -340 -10 -366 -57 -8 -15 -10 -110 -7 -328 5 -326 8
-349 55 -370 54 -25 152 -5 167 34 3 9 6 37 6 61 0 24 2 44 5 44 2 0 39 -28
82 -63 326 -263 738 -390 1180 -365 516 29 1008 312 1305 753 151 224 231 444
283 777 6 35 9 34 -220 48 -99 6 -205 13 -236 17 -56 5 -57 5 -62 -23z"/>
<path d="M12498 1390 c-121 -22 -227 -77 -317 -163 -117 -114 -173 -246 -174
-412 -1 -176 48 -300 164 -416 193 -194 503 -230 795 -92 52 24 54 27 54 64 0
22 -5 39 -10 39 -6 0 -33 -11 -60 -25 -205 -104 -451 -112 -606 -19 -162 97
-244 245 -244 439 0 160 41 265 145 370 33 33 83 72 111 87 155 83 365 76 563
-17 40 -19 75 -35 78 -35 2 0 3 21 1 47 l-3 48 -59 23 c-140 56 -328 83 -438
62z"/>
<path d="M14436 1389 c-134 -22 -233 -74 -331 -173 -113 -114 -165 -242 -165
-406 0 -167 52 -292 170 -410 112 -112 225 -163 390 -176 166 -13 336 46 455
157 129 122 187 252 188 424 1 172 -49 294 -172 416 -142 142 -334 202 -535
168z m239 -84 c172 -45 326 -199 364 -366 18 -78 13 -223 -10 -292 -53 -160
-192 -289 -356 -332 -72 -19 -192 -19 -262 0 -184 48 -332 203 -370 383 -56
270 103 535 366 607 66 18 197 18 268 0z"/>
<path d="M20395 1393 c-225 -31 -414 -178 -486 -378 -30 -85 -38 -265 -14
-355 25 -98 72 -177 150 -256 188 -190 474 -233 783 -119 l72 27 0 224 0 224
-165 0 -165 0 0 -35 0 -35 125 0 125 0 0 -159 0 -159 -49 -21 c-27 -11 -80
-28 -118 -37 -93 -22 -274 -14 -357 15 -201 71 -326 253 -326 473 0 156 45
271 145 373 159 161 406 191 658 80 45 -20 88 -39 95 -42 10 -4 12 6 10 42
l-3 48 -87 33 c-132 51 -280 72 -393 57z"/>
<path d="M24826 1389 c-134 -22 -233 -74 -331 -173 -113 -114 -165 -242 -165
-406 0 -167 52 -292 170 -410 112 -112 225 -163 390 -176 166 -13 336 46 455
157 129 122 187 252 188 424 1 172 -49 294 -172 416 -142 142 -334 202 -535
168z m239 -84 c172 -45 326 -199 364 -366 18 -78 13 -223 -10 -292 -53 -160
-192 -289 -356 -332 -72 -19 -192 -19 -262 0 -184 48 -332 203 -370 383 -56
270 103 535 366 607 66 18 197 18 268 0z"/>
<path d="M22496 1363 c-7 -16 -118 -257 -246 -538 -128 -280 -240 -524 -249
-542 l-16 -32 -150 232 c-82 128 -171 254 -196 280 l-46 48 41 21 c114 57 166
136 166 249 0 86 -21 144 -72 196 -79 81 -172 103 -430 103 l-168 0 0 -575 0
-575 45 0 45 0 0 280 0 280 113 0 c206 0 221 -12 431 -345 l132 -210 86 -3 85
-3 90 198 89 198 284 0 284 0 89 -198 90 -197 44 0 c25 0 43 4 41 8 -1 5 -120
266 -263 580 -229 504 -263 571 -282 572 -15 0 -28 -10 -37 -27z m-955 -69
c106 -30 169 -108 169 -209 0 -89 -51 -165 -135 -201 -31 -14 -76 -19 -197
-22 l-158 -4 0 226 0 226 132 0 c90 0 150 -5 189 -16z m1115 -322 l121 -267
-123 -3 c-68 -1 -180 -1 -247 0 l-124 3 121 268 c67 147 123 267 126 267 3 0
59 -121 126 -268z"/>
<path d="M13190 805 l0 -575 330 0 330 0 0 35 0 35 -285 0 -285 0 0 540 0 540
-45 0 -45 0 0 -575z"/>
<path d="M15342 988 c4 -370 5 -396 25 -449 31 -83 50 -117 96 -166 111 -120
264 -171 437 -144 191 30 330 161 375 353 12 50 15 142 15 431 l0 367 -39 0
-40 0 -3 -382 c-4 -365 -5 -386 -26 -443 -44 -119 -136 -208 -250 -241 -83
-24 -210 -15 -285 20 -64 31 -138 100 -166 155 -51 99 -54 124 -59 519 l-4
372 -40 0 -39 0 3 -392z"/>
<path d="M16540 805 l0 -577 278 5 c303 5 338 10 452 65 328 155 402 655 136
917 -73 72 -137 108 -243 137 -68 18 -113 22 -350 26 l-273 4 0 -577z m542
494 c127 -26 259 -120 325 -230 86 -144 86 -385 0 -532 -59 -101 -202 -200
-325 -226 -29 -6 -143 -11 -252 -11 l-200 0 0 505 0 505 200 0 c109 0 223 -5
252 -11z"/>
<path d="M18260 805 l0 -575 45 0 45 0 2 507 3 507 189 -235 c104 -128 202
-248 216 -265 l26 -31 215 266 214 265 3 -507 2 -507 45 0 45 0 0 575 0 575
-43 0 -44 0 -219 -270 c-165 -203 -221 -267 -229 -257 -5 8 -104 129 -219 270
l-210 257 -43 0 -43 0 0 -575z"/>
<path d="M19570 805 l0 -575 45 0 45 0 0 575 0 575 -45 0 -45 0 0 -575z"/>
<path d="M22930 1345 l0 -35 215 0 215 0 0 -540 0 -540 40 0 40 0 0 540 0 540
215 0 215 0 0 35 0 35 -470 0 -470 0 0 -35z"/>
<path d="M24020 805 l0 -575 45 0 45 0 0 575 0 575 -45 0 -45 0 0 -575z"/>
<path d="M25760 805 l0 -575 45 0 45 0 2 501 3 501 433 -501 c416 -481 434
-501 468 -501 l34 0 0 575 0 575 -40 0 -40 0 0 -500 c0 -275 -3 -500 -7 -499
-5 0 -201 225 -438 500 -425 493 -430 499 -467 499 l-38 0 0 -575z"/>
</g>
</svg>
