<?xml version="1.0" standalone="no"?>
<!DOCTYPE svg PUBLIC "-//W3C//DTD SVG 20010904//EN"
 "http://www.w3.org/TR/2001/REC-SVG-20010904/DTD/svg10.dtd">
<svg version="1.0" xmlns="http://www.w3.org/2000/svg"
 width="260.000000pt" height="50.000000pt" viewBox="0 0 1060.000000 175.000000"
 preserveAspectRatio="xMidYMid meet" style="background-color:white" >

<g transform="translate(0.000000,175.000000) scale(0.100000,-0.100000)"
fill="black" stroke="none">
<path d="M5387 968 c-10 -57 -24 -139 -32 -183 -19 -106 -19 -105 13 -105 27
0 28 2 41 78 8 42 22 122 32 177 25 133 25 135 -9 135 -28 0 -29 -1 -45 -102z"/>
<path d="M6316 1021 l-6 -49 -60 -4 c-77 -5 -110 -29 -132 -94 -26 -73 -23
-137 6 -171 22 -25 31 -28 83 -28 111 1 107 -4 133 147 12 73 26 149 31 168
16 64 12 80 -20 80 -27 0 -29 -3 -35 -49z m-24 -106 c3 -3 -1 -38 -8 -78 -23
-122 -21 -117 -58 -117 -57 0 -66 8 -66 55 0 102 26 145 89 145 21 0 40 -2 43
-5z"/>
<path d="M4065 960 c-12 -19 -36 -195 -30 -221 10 -43 58 -71 110 -64 53 7 61
7 120 0 61 -7 109 18 130 68 15 36 48 207 42 213 -9 9 -47 12 -51 5 -6 -9 -38
-176 -39 -203 -1 -9 -3 -15 -6 -13 -2 3 -9 1 -15 -4 -6 -5 -27 -11 -46 -13
-41 -4 -41 -7 -16 131 17 98 14 112 -23 106 -16 -2 -20 -16 -51 -177 -11 -57
-12 -58 -44 -58 -56 0 -62 17 -42 128 9 53 16 99 16 102 0 8 -50 8 -55 0z"/>
<path d="M4574 956 c-44 -19 -71 -59 -85 -124 -24 -117 20 -170 129 -157 32 4
64 10 72 15 7 4 21 55 32 116 10 60 21 117 24 126 10 33 -112 50 -172 24z
m102 -63 c-3 -16 -10 -61 -17 -100 l-12 -73 -42 0 c-62 0 -71 16 -57 98 13 79
34 102 94 102 38 0 39 -1 34 -27z"/>
<path d="M4864 956 c-34 -15 -44 -37 -64 -141 -6 -33 -15 -77 -20 -97 -8 -38
-8 -38 25 -38 32 0 33 1 40 53 12 87 33 170 47 178 20 13 74 10 87 -4 8 -10 6
-41 -9 -118 -11 -57 -20 -105 -20 -106 0 -2 14 -3 30 -3 17 0 30 1 30 3 0 1 7
40 15 87 17 96 19 154 6 146 -5 -3 -8 2 -7 11 3 38 -97 56 -160 29z"/>
<path d="M5169 947 c-42 -28 -68 -92 -68 -168 -1 -47 3 -59 25 -80 20 -19 36
-24 79 -24 58 0 60 1 69 31 6 20 4 21 -42 16 -66 -6 -83 15 -71 89 14 87 50
119 118 106 24 -5 30 -2 35 16 7 28 -8 37 -65 37 -32 0 -57 -7 -80 -23z"/>
<path d="M5570 952 c-42 -20 -68 -69 -77 -140 -8 -69 2 -99 40 -122 39 -24 66
-25 114 -5 l36 15 -23 25 c-14 15 -36 25 -58 27 -30 3 -37 8 -43 32 -11 39 -1
51 22 30 15 -14 21 -15 34 -4 14 11 13 14 -6 28 -30 21 -10 33 33 20 33 -10
37 -15 40 -47 2 -24 8 -35 16 -33 8 1 11 -2 8 -7 -4 -5 -2 -12 3 -15 12 -8 19
12 27 73 9 68 -1 98 -39 121 -39 24 -80 25 -127 2z"/>
<path d="M5820 917 c-6 -28 -13 -83 -17 -122 -5 -66 -4 -73 17 -93 49 -46 141
-36 183 20 11 15 28 67 38 120 24 123 24 125 -6 124 -32 -2 -32 -2 -44 -72
-11 -70 -27 -133 -39 -151 -4 -7 -22 -15 -39 -19 -26 -5 -34 -2 -46 17 -14 22
-13 34 3 119 10 52 16 97 14 99 -2 2 -15 5 -28 7 -22 2 -26 -3 -36 -49z"/>
<path d="M6471 959 c-59 -24 -68 -85 -19 -130 18 -16 35 -29 39 -29 3 0 17 -9
30 -21 18 -16 21 -24 12 -37 -8 -13 -26 -17 -74 -18 -56 -1 -64 -4 -67 -21 -2
-16 4 -22 29 -27 110 -22 193 26 174 101 -3 12 -30 41 -60 63 -80 59 -69 85
33 79 41 -3 47 -1 50 17 2 17 -4 23 -29 28 -43 8 -89 7 -118 -5z"/>
<path d="M5253 475 c0 -38 2 -53 4 -32 2 20 2 52 0 70 -2 17 -4 1 -4 -38z"/>
<path d="M4070 470 c0 -33 4 -60 10 -60 6 0 10 11 10 25 0 16 6 25 15 25 9 0
21 -11 27 -25 6 -14 15 -25 20 -25 5 0 4 10 -3 21 -8 16 -8 27 1 45 18 32 -2
54 -46 54 l-34 0 0 -60z m68 23 c3 -19 -1 -23 -22 -23 -21 0 -26 5 -26 26 0
21 4 25 23 22 14 -2 23 -11 25 -25z"/>
<path d="M4380 470 c0 -33 4 -60 10 -60 6 0 10 27 10 60 0 33 -4 60 -10 60 -6
0 -10 -27 -10 -60z"/>
<path d="M4810 519 c0 -5 5 -7 10 -4 6 3 10 8 10 11 0 2 -4 4 -10 4 -5 0 -10
-5 -10 -11z"/>
<path d="M5126 508 c-32 -45 -7 -98 45 -98 27 0 57 16 47 25 -3 4 -16 0 -27
-7 -23 -14 -46 -5 -65 25 -21 34 30 81 64 59 27 -16 35 -15 20 3 -19 23 -66
19 -84 -7z"/>
<path d="M5580 510 c0 -16 -5 -19 -24 -14 -42 10 -75 -48 -42 -75 7 -6 28 -10
45 -9 31 2 31 3 31 60 0 32 -2 58 -5 58 -3 0 -5 -9 -5 -20z m-5 -48 c8 -20
-19 -47 -39 -39 -26 10 -32 38 -12 53 21 15 42 9 51 -14z"/>
<path d="M5672 468 l1 -63 6 50 6 50 22 -34 21 -33 19 33 18 34 6 -50 6 -50 1
63 c2 60 -10 82 -23 43 -3 -11 -12 -24 -20 -31 -11 -9 -17 -5 -30 19 -24 48
-35 37 -33 -31z"/>
<path d="M5815 520 c3 -5 8 -10 11 -10 2 0 4 5 4 10 0 6 -5 10 -11 10 -5 0 -7
-4 -4 -10z"/>
<path d="M6151 502 c-8 -8 -10 -17 -5 -21 5 -3 9 -19 9 -36 0 -22 5 -30 20
-32 11 -2 14 0 8 3 -17 7 -17 61 -1 66 10 4 9 8 -2 20 -14 13 -17 13 -29 0z"/>
<path d="M4185 476 c-30 -45 18 -86 64 -57 10 7 4 9 -19 8 -19 -1 -35 3 -37
11 -3 8 7 12 31 12 37 0 47 15 24 38 -19 19 -46 14 -63 -12z m42 -14 c-34 -4
-48 5 -27 18 8 5 22 4 34 -3 20 -11 20 -12 -7 -15z"/>
<path d="M4431 451 c2 -34 3 -38 6 -16 9 62 43 69 43 9 0 -19 5 -34 10 -34 6
0 10 16 10 35 0 28 4 35 19 35 15 0 21 -8 24 -37 l4 -38 1 43 c1 23 -1 43 -5
43 -5 1 -32 2 -60 3 l-53 3 1 -46z"/>
<path d="M4592 488 c-7 -7 -12 -25 -12 -40 0 -28 18 -38 63 -36 16 1 19 7 21
53 2 31 -48 47 -72 23z m48 -13 c19 -23 8 -50 -20 -50 -16 0 -26 6 -28 18 -4
18 14 47 28 47 4 0 13 -7 20 -15z"/>
<path d="M4706 481 c-32 -35 -8 -78 39 -69 29 6 33 -6 8 -21 -11 -6 -24 -6
-35 0 -12 6 -18 6 -18 0 0 -16 38 -23 60 -11 16 9 20 21 20 63 0 50 -1 52 -29
54 -17 1 -35 -5 -45 -16z m64 -25 c0 -23 -30 -41 -48 -30 -23 15 -25 29 -7 48
12 12 21 13 36 6 10 -6 19 -17 19 -24z"/>
<path d="M4813 455 c0 -27 2 -38 4 -22 2 15 2 37 0 50 -2 12 -4 0 -4 -28z"/>
<path d="M4856 490 c-1 -3 1 -23 5 -45 l6 -40 2 36 c2 63 44 58 54 -6 4 -28 4
-28 6 6 0 20 -5 41 -12 47 -13 11 -57 12 -61 2z"/>
<path d="M4965 480 c-25 -27 -7 -70 29 -70 14 0 27 4 30 8 2 4 -7 8 -21 7 -14
0 -28 6 -30 13 -3 8 7 12 31 12 39 0 45 10 20 34 -21 21 -37 20 -59 -4z m55
-11 c0 -5 -11 -9 -25 -9 -26 0 -34 15 -12 23 16 5 37 -3 37 -14z"/>
<path d="M5308 489 c-21 -12 -24 -49 -6 -67 39 -39 100 17 63 58 -20 22 -32
24 -57 9z m40 -8 c8 -4 12 -19 10 -32 -2 -18 -9 -24 -28 -24 -28 0 -39 27 -20
50 14 17 20 18 38 6z"/>
<path d="M5404 460 c1 -43 2 -45 34 -48 l32 -3 -1 48 -2 48 -6 -40 c-5 -31
-10 -40 -26 -40 -16 0 -21 9 -26 40 l-7 40 2 -45z"/>
<path d="M5817 493 c-11 -10 -8 -83 3 -83 6 0 10 20 10 45 0 46 -2 50 -13 38z"/>
<path d="M5865 479 c-15 -16 -16 -23 -6 -45 9 -22 17 -25 41 -22 33 5 40 -6
13 -21 -11 -6 -24 -6 -35 0 -11 6 -18 6 -18 1 0 -15 41 -22 62 -11 14 7 18 21
18 62 0 50 -1 52 -29 54 -18 1 -35 -5 -46 -18z m65 -23 c0 -23 -30 -41 -48
-30 -23 15 -25 29 -7 48 12 12 21 13 36 6 10 -6 19 -17 19 -24z"/>
<path d="M5988 492 c-14 -2 -18 -13 -18 -43 0 -21 5 -39 10 -39 6 0 10 15 10
34 0 19 6 36 13 39 17 6 5 14 -15 9z"/>
<path d="M6034 475 c-24 -36 -4 -66 42 -63 33 2 34 4 34 43 0 37 -2 40 -30 42
-22 2 -34 -4 -46 -22z m64 -28 c-2 -16 -10 -22 -28 -22 -28 0 -39 27 -20 50
18 21 52 1 48 -28z"/>
<path d="M6223 455 c0 -27 2 -38 4 -22 2 15 2 37 0 50 -2 12 -4 0 -4 -28z"/>
<path d="M6265 476 c-13 -19 -14 -29 -5 -45 20 -38 80 -24 80 18 0 52 -48 69
-75 27z m63 -29 c-2 -16 -10 -22 -28 -22 -28 0 -39 27 -20 50 18 21 52 1 48
-28z"/>
<path d="M6372 450 c1 -35 2 -38 5 -13 5 35 29 62 43 47 5 -5 10 -25 13 -44 4
-33 4 -33 5 8 1 23 -1 43 -5 43 -5 1 -20 2 -35 3 -27 2 -28 0 -26 -44z"/>
<path d="M6477 493 c-14 -14 -6 -34 18 -45 28 -13 23 -32 -8 -24 -14 3 -17 2
-10 -5 15 -15 47 -7 51 12 1 9 -8 21 -23 27 -31 14 -25 32 8 25 18 -4 19 -3 7
6 -17 12 -34 14 -43 4z"/>
<path d="M4303 463 c9 -2 25 -2 35 0 9 3 1 5 -18 5 -19 0 -27 -2 -17 -5z"/>
</g>
</svg>
