<?xml version="1.0" standalone="no"?>
<!DOCTYPE svg PUBLIC "-//W3C//DTD SVG 20010904//EN"
 "http://www.w3.org/TR/2001/REC-SVG-20010904/DTD/svg10.dtd">
<svg version="1.0" xmlns="http://www.w3.org/2000/svg"
 width="48.000000pt" height="48.000000pt" viewBox="0 0 48.000000 48.000000"
 preserveAspectRatio="xMidYMid meet">

<g transform="translate(0.000000,48.000000) scale(0.100000,-0.100000)"
fill="#000000" stroke="none">
<path d="M165 376 c-40 -18 -79 -56 -101 -97 -23 -43 -23 -124 -1 -167 15 -28
23 -32 56 -32 22 0 44 6 51 15 17 21 123 21 140 0 7 -9 29 -15 55 -15 39 0 44
3 56 32 36 85 6 189 -69 242 -49 35 -137 45 -187 22z"/>
</g>
</svg>
