<?xml version="1.0" standalone="no"?>
<!DOCTYPE svg PUBLIC "-//W3C//DTD SVG 20010904//EN"
 "http://www.w3.org/TR/2001/REC-SVG-20010904/DTD/svg10.dtd">
<svg version="1.0" xmlns="http://www.w3.org/2000/svg"
 width="160.000000pt" height="160.000000pt" viewBox="0 0 500.000000 500.000000"
 preserveAspectRatio="xMidYMid meet"  style="background-color:#98a0ab">

<g transform="translate(0.000000,360.000000) scale(0.100000,-0.100000)"
fill="#202226" stroke="none">
<path d="M0 1800 l0 -1800 1800 0 1800 0 0 1800 0 1800 -1800 0 -1800 0 0
-1800z m2950 170 l0 -670 -1150 0 -1150 0 0 670 0 670 1150 0 1150 0 0 -670z
m-1506 -759 c25 -47 54 -51 356 -51 302 0 331 4 356 51 l15 29 489 0 490 0 0
-33 c0 -58 -30 -125 -76 -171 -81 -81 5 -76 -1274 -76 -1279 0 -1193 -5 -1274
76 -46 46 -76 113 -76 171 l0 33 490 0 489 0 15 -29z"/>
<path d="M702 1968 l3 -613 1095 0 1095 0 3 613 2 612 -1100 0 -1100 0 2 -612z
m2138 2 l0 -560 -1040 0 -1040 0 0 560 0 560 1040 0 1040 0 0 -560z"/>
<path d="M820 1965 l0 -505 980 0 980 0 0 505 0 505 -980 0 -980 0 0 -505z"/>
<path d="M510 1168 c0 -29 54 -99 94 -123 l43 -25 1153 0 1153 0 43 25 c40 24
94 94 94 123 0 9 -114 12 -445 12 -424 0 -445 -1 -454 -19 -6 -10 -26 -26 -45
-35 -51 -24 -641 -24 -692 0 -19 9 -39 25 -45 35 -9 18 -30 19 -454 19 -331 0
-445 -3 -445 -12z"/>
</g>
</svg>
